<svg width="38" height="28" viewBox="0 0 38 28" fill="none" xmlns="http://www.w3.org/2000/svg">
<path d="M11.3565 5.28652C13.1184 5.28652 14.7858 5.68901 16.2742 6.40656C18.1151 2.61638 22.0034 0 26.4962 0C32.763 0 37.8527 5.08925 37.8527 11.356C37.8527 17.6284 32.7681 22.7135 26.4962 22.7135C24.7343 22.7135 23.0669 22.3115 21.5794 21.5958C19.7395 25.3869 15.8535 28 11.3565 28C5.08458 28 0 22.915 0 16.643C0 10.3758 5.08972 5.28652 11.3565 5.28652ZM15.5141 8.45778C14.266 7.82343 12.8538 7.46489 11.3565 7.46489C6.28362 7.46489 2.17837 11.5697 2.17837 16.643C2.17837 21.7117 6.28782 25.8216 11.3565 25.8216C18.0094 25.8216 22.3718 18.9803 19.7839 12.9987L18.7761 13.2979L19.9886 9.92187L22.8462 12.09L21.8819 12.376C22.8018 14.6372 22.9603 17.1825 22.3395 19.5418C23.5872 20.1766 24.9998 20.5351 26.4962 20.5351C31.5649 20.5351 35.6743 16.4252 35.6743 11.356C35.6743 6.28315 31.5691 2.17837 26.4962 2.17837C19.8732 2.17837 15.5094 8.95563 18.0417 14.9326L19.1916 14.5913L17.979 17.9669L15.1214 15.7988L15.9418 15.5552C15.0485 13.311 14.8975 10.7927 15.5141 8.45778Z" fill="#1D65F5"/>
</svg>
