<svg xmlns="http://www.w3.org/2000/svg" xmlns:xlink="http://www.w3.org/1999/xlink"><symbol id="i-arrow"><path d="M16.53 6.53a.75.75 0 000-1.06L11.757.697a.75.75 0 00-1.06 1.06L14.939 6l-4.242 4.243a.75.75 0 001.06 1.06L16.53 6.53zM0 6.75h16v-1.5H0v1.5z"/></symbol><symbol id="i-checkbox"><path d="M1.522 5.308A.75.75 0 00.478 6.385l1.044-1.077zM5.286 10l-.522.539.572.555.52-.606-.57-.488zm8.283-8.512a.75.75 0 10-1.138-.976l1.138.976zM.478 6.385l4.286 4.154L5.808 9.46 1.522 5.308.478 6.385zm5.377 4.103l7.714-9-1.138-.976-7.715 9 1.14.976z"/></symbol><symbol id="i-logo" viewBox="0 0 44 44"><circle class="logo-c" cx="21.876" cy="22.31" r="21.876"/><circle class="logo-c-sm" r="10.083" transform="matrix(-1 0 0 1 31.67 22.31)"/></symbol></svg>