<svg xmlns="http://www.w3.org/2000/svg" xmlns:xlink="http://www.w3.org/1999/xlink"><symbol id="i-arrow"><path d="M16.53 6.53a.75.75 0 000-1.06L11.757.697a.75.75 0 00-1.06 1.06L14.939 6l-4.242 4.243a.75.75 0 001.06 1.06L16.53 6.53zM0 6.75h16v-1.5H0v1.5z"/></symbol><symbol id="i-checkbox"><path d="M1.522 5.308A.75.75 0 00.478 6.385l1.044-1.077zM5.286 10l-.522.539.572.555.52-.606-.57-.488zm8.283-8.512a.75.75 0 10-1.138-.976l1.138.976zM.478 6.385l4.286 4.154L5.808 9.46 1.522 5.308.478 6.385zm5.377 4.103l7.714-9-1.138-.976-7.715 9 1.14.976z"/></symbol><symbol id="i-logo"><path d="M11.357 5.287c1.761 0 3.429.402 4.917 1.12C18.115 2.617 22.004 0 26.496 0c6.267 0 11.357 5.09 11.357 11.356 0 6.272-5.085 11.357-11.357 11.357a11.31 11.31 0 01-4.917-1.117A11.357 11.357 0 0111.356 28C5.086 28 0 22.915 0 16.643 0 10.376 5.09 5.287 11.357 5.287zm4.157 3.17a9.149 9.149 0 00-4.157-.992 9.173 9.173 0 00-9.179 9.178 9.179 9.179 0 009.178 9.179c6.653 0 11.016-6.842 8.428-12.823l-1.008.299 1.213-3.376 2.857 2.168-.964.286a11.422 11.422 0 01.457 7.166 9.179 9.179 0 0013.335-8.186 9.173 9.173 0 00-9.178-9.178c-6.623 0-10.987 6.778-8.454 12.755l1.15-.342-1.213 3.376-2.858-2.168.82-.244a11.425 11.425 0 01-.427-7.097z"/></symbol></svg>